<mxfile host="app.diagrams.net" modified="2022-10-05T10:45:33.061Z" agent="5.0 (Windows NT 6.3; Win64; x64) AppleWebKit/537.36 (KHTML, like Gecko) Chrome/105.0.0.0 Safari/537.36" etag="CcWk_xxXa0tWDt4I0_ib" version="20.4.0" type="github">
  <diagram name="Page-1" id="2a216829-ef6e-dabb-86c1-c78162f3ba2b">
    <mxGraphModel dx="1813" dy="370" grid="1" gridSize="10" guides="1" tooltips="1" connect="1" arrows="1" fold="1" page="1" pageScale="1" pageWidth="850" pageHeight="1100" background="none" math="0" shadow="0">
      <root>
        <mxCell id="0" />
        <mxCell id="1" parent="0" />
        <mxCell id="ua7uwXk_rm-2TfZKkDLM-5" value="" style="edgeStyle=orthogonalEdgeStyle;rounded=0;orthogonalLoop=1;jettySize=auto;html=1;" parent="1" source="ua7uwXk_rm-2TfZKkDLM-3" target="ua7uwXk_rm-2TfZKkDLM-4" edge="1">
          <mxGeometry relative="1" as="geometry" />
        </mxCell>
        <mxCell id="ua7uwXk_rm-2TfZKkDLM-3" value="Assess Materials Inventory" style="rounded=0;whiteSpace=wrap;html=1;" parent="1" vertex="1">
          <mxGeometry x="-190" y="110" width="110" height="50" as="geometry" />
        </mxCell>
        <mxCell id="ua7uwXk_rm-2TfZKkDLM-7" value="" style="edgeStyle=orthogonalEdgeStyle;rounded=0;orthogonalLoop=1;jettySize=auto;html=1;" parent="1" source="ua7uwXk_rm-2TfZKkDLM-4" target="ua7uwXk_rm-2TfZKkDLM-6" edge="1">
          <mxGeometry relative="1" as="geometry" />
        </mxCell>
        <mxCell id="ua7uwXk_rm-2TfZKkDLM-4" value="Inform Warehouse Manager" style="whiteSpace=wrap;html=1;rounded=0;" parent="1" vertex="1">
          <mxGeometry x="-5" y="105" width="115" height="65" as="geometry" />
        </mxCell>
        <mxCell id="ua7uwXk_rm-2TfZKkDLM-9" value="" style="edgeStyle=orthogonalEdgeStyle;rounded=0;orthogonalLoop=1;jettySize=auto;html=1;" parent="1" source="ua7uwXk_rm-2TfZKkDLM-6" target="ua7uwXk_rm-2TfZKkDLM-8" edge="1">
          <mxGeometry relative="1" as="geometry" />
        </mxCell>
        <mxCell id="ua7uwXk_rm-2TfZKkDLM-11" value="" style="edgeStyle=orthogonalEdgeStyle;rounded=0;orthogonalLoop=1;jettySize=auto;html=1;" parent="1" source="ua7uwXk_rm-2TfZKkDLM-6" target="ua7uwXk_rm-2TfZKkDLM-10" edge="1">
          <mxGeometry relative="1" as="geometry" />
        </mxCell>
        <mxCell id="ua7uwXk_rm-2TfZKkDLM-6" value="If Accepts&lt;br&gt;" style="rhombus;whiteSpace=wrap;html=1;rounded=0;" parent="1" vertex="1">
          <mxGeometry x="207.5" y="97.5" width="80" height="80" as="geometry" />
        </mxCell>
        <mxCell id="ua7uwXk_rm-2TfZKkDLM-15" value="" style="edgeStyle=orthogonalEdgeStyle;rounded=0;orthogonalLoop=1;jettySize=auto;html=1;" parent="1" source="ua7uwXk_rm-2TfZKkDLM-8" target="ua7uwXk_rm-2TfZKkDLM-14" edge="1">
          <mxGeometry relative="1" as="geometry" />
        </mxCell>
        <mxCell id="ua7uwXk_rm-2TfZKkDLM-8" value="Create PR By Warehouse Manager" style="whiteSpace=wrap;html=1;rounded=0;" parent="1" vertex="1">
          <mxGeometry x="110" y="240" width="120" height="60" as="geometry" />
        </mxCell>
        <mxCell id="ua7uwXk_rm-2TfZKkDLM-10" value="End" style="ellipse;whiteSpace=wrap;html=1;rounded=0;" parent="1" vertex="1">
          <mxGeometry x="220" y="20" width="52.5" height="42.5" as="geometry" />
        </mxCell>
        <mxCell id="ua7uwXk_rm-2TfZKkDLM-17" value="" style="edgeStyle=orthogonalEdgeStyle;rounded=0;orthogonalLoop=1;jettySize=auto;html=1;" parent="1" source="ua7uwXk_rm-2TfZKkDLM-14" target="ua7uwXk_rm-2TfZKkDLM-16" edge="1">
          <mxGeometry relative="1" as="geometry" />
        </mxCell>
        <mxCell id="ua7uwXk_rm-2TfZKkDLM-14" value="Send PR To \scheduling Manager" style="whiteSpace=wrap;html=1;rounded=0;" parent="1" vertex="1">
          <mxGeometry x="305" y="240" width="120" height="60" as="geometry" />
        </mxCell>
        <mxCell id="ua7uwXk_rm-2TfZKkDLM-21" value="" style="edgeStyle=orthogonalEdgeStyle;rounded=0;orthogonalLoop=1;jettySize=auto;html=1;" parent="1" source="ua7uwXk_rm-2TfZKkDLM-16" target="ua7uwXk_rm-2TfZKkDLM-20" edge="1">
          <mxGeometry relative="1" as="geometry" />
        </mxCell>
        <mxCell id="ua7uwXk_rm-2TfZKkDLM-22" value="" style="edgeStyle=orthogonalEdgeStyle;rounded=0;orthogonalLoop=1;jettySize=auto;html=1;" parent="1" source="ua7uwXk_rm-2TfZKkDLM-16" target="ua7uwXk_rm-2TfZKkDLM-20" edge="1">
          <mxGeometry relative="1" as="geometry" />
        </mxCell>
        <mxCell id="ua7uwXk_rm-2TfZKkDLM-25" value="" style="edgeStyle=orthogonalEdgeStyle;rounded=0;orthogonalLoop=1;jettySize=auto;html=1;" parent="1" source="ua7uwXk_rm-2TfZKkDLM-16" target="ua7uwXk_rm-2TfZKkDLM-24" edge="1">
          <mxGeometry relative="1" as="geometry" />
        </mxCell>
        <mxCell id="ua7uwXk_rm-2TfZKkDLM-16" value="If Accepts" style="rhombus;whiteSpace=wrap;html=1;rounded=0;" parent="1" vertex="1">
          <mxGeometry x="500" y="120" width="80" height="80" as="geometry" />
        </mxCell>
        <mxCell id="ua7uwXk_rm-2TfZKkDLM-18" value="Yes" style="text;html=1;align=center;verticalAlign=middle;resizable=0;points=[];autosize=1;strokeColor=none;fillColor=none;" parent="1" vertex="1">
          <mxGeometry x="190" y="175" width="40" height="30" as="geometry" />
        </mxCell>
        <mxCell id="ua7uwXk_rm-2TfZKkDLM-19" value="No" style="text;html=1;align=center;verticalAlign=middle;resizable=0;points=[];autosize=1;strokeColor=none;fillColor=none;" parent="1" vertex="1">
          <mxGeometry x="240" y="65" width="40" height="30" as="geometry" />
        </mxCell>
        <mxCell id="ua7uwXk_rm-2TfZKkDLM-30" value="" style="edgeStyle=orthogonalEdgeStyle;rounded=0;orthogonalLoop=1;jettySize=auto;html=1;" parent="1" source="ua7uwXk_rm-2TfZKkDLM-20" target="ua7uwXk_rm-2TfZKkDLM-29" edge="1">
          <mxGeometry relative="1" as="geometry" />
        </mxCell>
        <mxCell id="ua7uwXk_rm-2TfZKkDLM-20" value="Send PR To Procurment" style="whiteSpace=wrap;html=1;rounded=0;" parent="1" vertex="1">
          <mxGeometry x="640" y="130" width="120" height="60" as="geometry" />
        </mxCell>
        <mxCell id="ua7uwXk_rm-2TfZKkDLM-23" value="Yes" style="text;html=1;align=center;verticalAlign=middle;resizable=0;points=[];autosize=1;strokeColor=none;fillColor=none;" parent="1" vertex="1">
          <mxGeometry x="580" y="135" width="40" height="30" as="geometry" />
        </mxCell>
        <mxCell id="ua7uwXk_rm-2TfZKkDLM-24" value="End" style="ellipse;whiteSpace=wrap;html=1;rounded=0;" parent="1" vertex="1">
          <mxGeometry x="520" y="37.5" width="40" height="42.5" as="geometry" />
        </mxCell>
        <mxCell id="ua7uwXk_rm-2TfZKkDLM-26" value="No" style="text;html=1;align=center;verticalAlign=middle;resizable=0;points=[];autosize=1;strokeColor=none;fillColor=none;" parent="1" vertex="1">
          <mxGeometry x="530" y="85" width="40" height="30" as="geometry" />
        </mxCell>
        <mxCell id="ua7uwXk_rm-2TfZKkDLM-32" value="" style="edgeStyle=orthogonalEdgeStyle;rounded=0;orthogonalLoop=1;jettySize=auto;html=1;" parent="1" source="ua7uwXk_rm-2TfZKkDLM-29" target="ua7uwXk_rm-2TfZKkDLM-31" edge="1">
          <mxGeometry relative="1" as="geometry">
            <Array as="points">
              <mxPoint x="700" y="350" />
              <mxPoint x="-140" y="350" />
            </Array>
          </mxGeometry>
        </mxCell>
        <mxCell id="ua7uwXk_rm-2TfZKkDLM-29" value="Procurment Recieves &amp;amp; Create PO" style="whiteSpace=wrap;html=1;rounded=0;" parent="1" vertex="1">
          <mxGeometry x="640" y="270" width="120" height="60" as="geometry" />
        </mxCell>
        <mxCell id="ua7uwXk_rm-2TfZKkDLM-34" value="" style="edgeStyle=orthogonalEdgeStyle;rounded=0;orthogonalLoop=1;jettySize=auto;html=1;" parent="1" source="ua7uwXk_rm-2TfZKkDLM-31" target="ua7uwXk_rm-2TfZKkDLM-33" edge="1">
          <mxGeometry relative="1" as="geometry">
            <Array as="points">
              <mxPoint x="-10" y="410" />
              <mxPoint x="-10" y="410" />
            </Array>
          </mxGeometry>
        </mxCell>
        <mxCell id="ua7uwXk_rm-2TfZKkDLM-31" value="Investigate Vendors" style="whiteSpace=wrap;html=1;rounded=0;" parent="1" vertex="1">
          <mxGeometry x="-190" y="380" width="120" height="60" as="geometry" />
        </mxCell>
        <mxCell id="ua7uwXk_rm-2TfZKkDLM-36" value="" style="edgeStyle=orthogonalEdgeStyle;rounded=0;orthogonalLoop=1;jettySize=auto;html=1;" parent="1" source="ua7uwXk_rm-2TfZKkDLM-33" target="ua7uwXk_rm-2TfZKkDLM-35" edge="1">
          <mxGeometry relative="1" as="geometry" />
        </mxCell>
        <mxCell id="ua7uwXk_rm-2TfZKkDLM-39" value="" style="edgeStyle=orthogonalEdgeStyle;rounded=0;orthogonalLoop=1;jettySize=auto;html=1;" parent="1" source="ua7uwXk_rm-2TfZKkDLM-33" target="ua7uwXk_rm-2TfZKkDLM-38" edge="1">
          <mxGeometry relative="1" as="geometry" />
        </mxCell>
        <mxCell id="ua7uwXk_rm-2TfZKkDLM-33" value="If Needs RFQ" style="rhombus;whiteSpace=wrap;html=1;rounded=0;" parent="1" vertex="1">
          <mxGeometry x="40" y="365" width="100" height="90" as="geometry" />
        </mxCell>
        <mxCell id="ua7uwXk_rm-2TfZKkDLM-52" value="" style="edgeStyle=orthogonalEdgeStyle;rounded=0;orthogonalLoop=1;jettySize=auto;html=1;" parent="1" source="ua7uwXk_rm-2TfZKkDLM-35" target="ua7uwXk_rm-2TfZKkDLM-51" edge="1">
          <mxGeometry relative="1" as="geometry" />
        </mxCell>
        <mxCell id="ua7uwXk_rm-2TfZKkDLM-35" value="Send PO To Vendor" style="whiteSpace=wrap;html=1;rounded=0;" parent="1" vertex="1">
          <mxGeometry x="20" y="520" width="120" height="60" as="geometry" />
        </mxCell>
        <mxCell id="ua7uwXk_rm-2TfZKkDLM-37" value="No" style="text;html=1;align=center;verticalAlign=middle;resizable=0;points=[];autosize=1;strokeColor=none;fillColor=none;" parent="1" vertex="1">
          <mxGeometry x="90" y="450" width="40" height="30" as="geometry" />
        </mxCell>
        <mxCell id="ua7uwXk_rm-2TfZKkDLM-42" value="" style="edgeStyle=orthogonalEdgeStyle;rounded=0;orthogonalLoop=1;jettySize=auto;html=1;" parent="1" source="ua7uwXk_rm-2TfZKkDLM-38" target="ua7uwXk_rm-2TfZKkDLM-41" edge="1">
          <mxGeometry relative="1" as="geometry" />
        </mxCell>
        <mxCell id="ua7uwXk_rm-2TfZKkDLM-38" value="Fill RFQ Forms" style="whiteSpace=wrap;html=1;rounded=0;" parent="1" vertex="1">
          <mxGeometry x="200" y="380" width="120" height="60" as="geometry" />
        </mxCell>
        <mxCell id="ua7uwXk_rm-2TfZKkDLM-40" value="Yes" style="text;html=1;align=center;verticalAlign=middle;resizable=0;points=[];autosize=1;strokeColor=none;fillColor=none;" parent="1" vertex="1">
          <mxGeometry x="160" y="380" width="40" height="30" as="geometry" />
        </mxCell>
        <mxCell id="ua7uwXk_rm-2TfZKkDLM-44" value="" style="edgeStyle=orthogonalEdgeStyle;rounded=0;orthogonalLoop=1;jettySize=auto;html=1;" parent="1" source="ua7uwXk_rm-2TfZKkDLM-41" target="ua7uwXk_rm-2TfZKkDLM-43" edge="1">
          <mxGeometry relative="1" as="geometry" />
        </mxCell>
        <mxCell id="ua7uwXk_rm-2TfZKkDLM-41" value="Send RFQ To Management" style="whiteSpace=wrap;html=1;rounded=0;" parent="1" vertex="1">
          <mxGeometry x="400" y="380" width="120" height="60" as="geometry" />
        </mxCell>
        <mxCell id="ua7uwXk_rm-2TfZKkDLM-46" value="" style="edgeStyle=orthogonalEdgeStyle;rounded=0;orthogonalLoop=1;jettySize=auto;html=1;" parent="1" source="ua7uwXk_rm-2TfZKkDLM-43" target="ua7uwXk_rm-2TfZKkDLM-45" edge="1">
          <mxGeometry relative="1" as="geometry" />
        </mxCell>
        <mxCell id="ua7uwXk_rm-2TfZKkDLM-43" value="Select Vendor Based On RFQ" style="whiteSpace=wrap;html=1;rounded=0;" parent="1" vertex="1">
          <mxGeometry x="600" y="380" width="120" height="60" as="geometry" />
        </mxCell>
        <mxCell id="ua7uwXk_rm-2TfZKkDLM-48" style="edgeStyle=orthogonalEdgeStyle;rounded=0;orthogonalLoop=1;jettySize=auto;html=1;" parent="1" source="ua7uwXk_rm-2TfZKkDLM-45" edge="1">
          <mxGeometry relative="1" as="geometry">
            <mxPoint x="80" y="500" as="targetPoint" />
            <Array as="points">
              <mxPoint x="660" y="500" />
            </Array>
          </mxGeometry>
        </mxCell>
        <mxCell id="ua7uwXk_rm-2TfZKkDLM-45" value="Send Selected RFQ To Procurment" style="whiteSpace=wrap;html=1;rounded=0;" parent="1" vertex="1">
          <mxGeometry x="600" y="520" width="120" height="60" as="geometry" />
        </mxCell>
        <mxCell id="ua7uwXk_rm-2TfZKkDLM-56" value="" style="edgeStyle=orthogonalEdgeStyle;rounded=0;orthogonalLoop=1;jettySize=auto;html=1;" parent="1" source="ua7uwXk_rm-2TfZKkDLM-51" target="ua7uwXk_rm-2TfZKkDLM-55" edge="1">
          <mxGeometry relative="1" as="geometry" />
        </mxCell>
        <mxCell id="ua7uwXk_rm-2TfZKkDLM-51" value="Register Recieve Date And Process steps" style="whiteSpace=wrap;html=1;rounded=0;" parent="1" vertex="1">
          <mxGeometry x="-180" y="520" width="120" height="60" as="geometry" />
        </mxCell>
        <mxCell id="ua7uwXk_rm-2TfZKkDLM-55" value="End" style="ellipse;whiteSpace=wrap;html=1;rounded=0;" parent="1" vertex="1">
          <mxGeometry x="-180" y="660" width="50" height="40" as="geometry" />
        </mxCell>
        <mxCell id="Ubr-4KMCTvfzr2s3hy8w-2" style="edgeStyle=orthogonalEdgeStyle;rounded=0;orthogonalLoop=1;jettySize=auto;html=1;entryX=0.5;entryY=0;entryDx=0;entryDy=0;" edge="1" parent="1" source="Ubr-4KMCTvfzr2s3hy8w-1" target="ua7uwXk_rm-2TfZKkDLM-3">
          <mxGeometry relative="1" as="geometry" />
        </mxCell>
        <mxCell id="Ubr-4KMCTvfzr2s3hy8w-1" value="Start" style="ellipse;whiteSpace=wrap;html=1;aspect=fixed;" vertex="1" parent="1">
          <mxGeometry x="-350" y="30" width="40" height="40" as="geometry" />
        </mxCell>
      </root>
    </mxGraphModel>
  </diagram>
</mxfile>
